<?xml version="1.0" encoding="UTF-8" standalone="no"?>
<!-- Created with Inkscape (http://www.inkscape.org/) -->

<svg
   xmlns:dc="http://purl.org/dc/elements/1.1/"
   xmlns:cc="http://creativecommons.org/ns#"
   xmlns:rdf="http://www.w3.org/1999/02/22-rdf-syntax-ns#"
   xmlns:svg="http://www.w3.org/2000/svg"
   xmlns="http://www.w3.org/2000/svg"
   xmlns:sodipodi="http://sodipodi.sourceforge.net/DTD/sodipodi-0.dtd"
   xmlns:inkscape="http://www.inkscape.org/namespaces/inkscape"
   width="210mm"
   height="297mm"
   viewBox="0 0 210 297"
   version="1.1"
   id="svg5998"
   inkscape:version="0.92.4 (5da689c313, 2019-01-14)"
   sodipodi:docname="hands_2.svg">
  <defs
     id="defs5992" />
  <sodipodi:namedview
     id="base"
     pagecolor="#ffffff"
     bordercolor="#666666"
     borderopacity="1.0"
     inkscape:pageopacity="0.0"
     inkscape:pageshadow="2"
     inkscape:zoom="0.49497475"
     inkscape:cx="377.05561"
     inkscape:cy="511.5298"
     inkscape:document-units="mm"
     inkscape:current-layer="layer1"
     showgrid="false"
     inkscape:window-width="1914"
     inkscape:window-height="1056"
     inkscape:window-x="0"
     inkscape:window-y="0"
     inkscape:window-maximized="1" />
  <metadata
     id="metadata5995">
    <rdf:RDF>
      <cc:Work
         rdf:about="">
        <dc:format>image/svg+xml</dc:format>
        <dc:type
           rdf:resource="http://purl.org/dc/dcmitype/StillImage" />
        <dc:title></dc:title>
      </cc:Work>
    </rdf:RDF>
  </metadata>
  <g
     inkscape:label="Layer 1"
     inkscape:groupmode="layer"
     id="layer1">
    <path
       sodipodi:nodetypes="ssccsscscscssccssss"
       inkscape:connector-curvature="0"
       d="m 93.247701,162.1827 c -0.50503,-1.28603 0.203234,-4.09805 1.32506,-5.27195 1.884828,-1.97231 3.414145,-3.03594 5.916999,-3.54499 -0.490831,-0.98077 -0.981132,-1.63331 -1.658859,-2.30353 L 92.32957,144.5609 c -1.148156,-1.14814 -1.148141,-2.99664 0,-4.14479 0.629791,-0.62979 1.470178,-0.9116 2.29028,-0.85048 -0.218155,-0.9497 0.0415,-1.9849 0.784218,-2.7276 0.857372,-0.85737 2.104607,-1.07362 3.159842,-0.65051 0.12436,-0.49944 0.378646,-0.97344 0.770569,-1.36536 1.139851,-1.13985 2.969641,-1.14717 4.119461,-0.0238 0.14301,-0.37643 0.3643,-0.73068 0.66845,-1.03484 1.14815,-1.14815 2.99704,-1.14775 4.14519,4e-4 l 4.72632,4.72632 c 1.05117,0.49043 2.00957,1.15899 2.83284,1.97612 3.92801,3.92787 3.26982,9.73358 -1e-5,14.2242 -2.52372,3.46597 -6.51678,5.05072 -9.57528,4.84889 -1.75229,-0.11562 -6.572714,-0.10143 -8.56335,2.85957 -2.08052,3.09471 -3.843741,1.30302 -4.440399,-0.21634 z"
       style="color:#000000;clip-rule:nonzero;display:inline;overflow:visible;visibility:visible;opacity:1;isolation:auto;mix-blend-mode:normal;color-interpolation:sRGB;color-interpolation-filters:linearRGB;solid-color:#000000;solid-opacity:1;fill:#800000;fill-opacity:1;fill-rule:nonzero;stroke:none;stroke-width:0.06713396;stroke-linecap:butt;stroke-linejoin:miter;stroke-miterlimit:4;stroke-dasharray:none;stroke-dashoffset:0;stroke-opacity:1;color-rendering:auto;image-rendering:auto;shape-rendering:auto;text-rendering:auto;enable-background:accumulate"
       id="path10481" />
  </g>
</svg>
