<?xml version="1.0" encoding="UTF-8" standalone="no"?>
<!-- Created with Inkscape (http://www.inkscape.org/) -->

<svg
   xmlns:dc="http://purl.org/dc/elements/1.1/"
   xmlns:cc="http://creativecommons.org/ns#"
   xmlns:rdf="http://www.w3.org/1999/02/22-rdf-syntax-ns#"
   xmlns:svg="http://www.w3.org/2000/svg"
   xmlns="http://www.w3.org/2000/svg"
   xmlns:sodipodi="http://sodipodi.sourceforge.net/DTD/sodipodi-0.dtd"
   xmlns:inkscape="http://www.inkscape.org/namespaces/inkscape"
   width="210mm"
   height="297mm"
   viewBox="0 0 210 297"
   version="1.1"
   id="svg5998"
   inkscape:version="0.92.4 (5da689c313, 2019-01-14)"
   sodipodi:docname="logo_3.svg">
  <defs
     id="defs5992" />
  <sodipodi:namedview
     id="base"
     pagecolor="#ffffff"
     bordercolor="#666666"
     borderopacity="1.0"
     inkscape:pageopacity="0.0"
     inkscape:pageshadow="2"
     inkscape:zoom="0.98994949"
     inkscape:cx="459.36784"
     inkscape:cy="550.37019"
     inkscape:document-units="mm"
     inkscape:current-layer="layer1"
     showgrid="false"
     inkscape:window-width="1914"
     inkscape:window-height="1056"
     inkscape:window-x="0"
     inkscape:window-y="0"
     inkscape:window-maximized="1" />
  <metadata
     id="metadata5995">
    <rdf:RDF>
      <cc:Work
         rdf:about="">
        <dc:format>image/svg+xml</dc:format>
        <dc:type
           rdf:resource="http://purl.org/dc/dcmitype/StillImage" />
        <dc:title></dc:title>
      </cc:Work>
    </rdf:RDF>
  </metadata>
  <g
     inkscape:label="Layer 1"
     inkscape:groupmode="layer"
     id="layer1">
    <path
       style="color:#000000;clip-rule:nonzero;display:inline;overflow:visible;visibility:visible;opacity:1;isolation:auto;mix-blend-mode:normal;color-interpolation:sRGB;color-interpolation-filters:linearRGB;solid-color:#000000;solid-opacity:1;vector-effect:none;fill:#ff0000;fill-opacity:1;fill-rule:evenodd;stroke:#aaffcc;stroke-width:0.16390549;stroke-linecap:round;stroke-linejoin:round;stroke-miterlimit:4;stroke-dasharray:none;stroke-dashoffset:0;stroke-opacity:1;color-rendering:auto;image-rendering:auto;shape-rendering:auto;text-rendering:auto;enable-background:accumulate"
       d="m 374.67773,415.51758 c -39.28372,4e-5 -71.13085,31.84713 -71.13085,71.13086 -10e-6,33.36026 22.97099,57.7602 53.95507,64.36328 -1.54108,0.64506 -3.10284,1.45611 -4.66015,2.39453 -0.22604,-0.37516 -0.41105,-0.84575 -0.66407,-1.08594 -0.9012,-0.85538 -1.96583,-1.35866 -3.27734,-1.85937 a 3.832296,5.9082429 51.152758 0 0 -6.44531,2.0664 c -0.0636,-0.14846 0.0786,-0.41092 0.002,-0.54687 -0.84603,-1.50078 -2.23598,-2.41095 -3.91211,-3.12891 a 3.832296,5.9082429 51.152758 0 0 -0.0117,-0.008 c -2.37741,-1.00585 -5.11364,-1.52148 -8.12109,-1.52148 -3.44678,0 -6.87993,0.4468 -10.28711,1.39648 -3.56153,0.99307 -6.56487,2.92001 -10.96484,5.80859 a 3.832296,5.9082429 51.152758 0 0 -0.006,0 c -3.37006,2.21772 -5.59915,3.06495 -6.19922,3.16016 a 3.832296,5.9082429 51.152758 0 0 -0.44531,0.0879 c 1.98397,-3.73746 4.08037,-7.88428 6.01171,-11.42773 3.4808,-2.54389 6.56135,-5.71406 8.09375,-9.22657 0.71426,-1.63717 1.29085,-3.34689 0.90625,-5.12304 -0.38458,-1.77619 -2.37401,-2.9961 -4.31836,-2.9961 -2.62116,0 -5.09242,1.21012 -7.3496,2.59766 -1.6519,1.01545 -3.09173,2.51605 -4.49219,4.05273 a 3.832296,5.9082429 51.152758 0 0 -0.6836,-2.57617 c -1.93063,-2.00326 -4.92797,-2.94778 -8.70312,-3.40429 a 3.832296,5.9082429 51.152758 0 0 -0.0332,-0.006 c -2.07669,-0.23558 -5.26146,-0.3237 -10.02149,-0.34766 h -0.006 c -3.89383,-0.0231 -6.60684,-0.26058 -7.72851,-0.50977 a 3.832296,5.9082429 51.152758 0 0 -0.9043,-0.0957 3.832296,5.9082429 51.152758 0 0 -2.40039,0.53125 c -3.10038,1.30069 -5.85769,4.47496 -6.89453,6.85156 -4.62697,10.6057 -10.90876,21.81689 -18.83008,33.61914 h -22.72266 c 5.28614,3.93059 10.25747,7.8582 14.97852,11.76563 a 3.832296,5.9082429 51.152758 0 0 0.88281,3.2832 l 2.54883,1.94141 a 3.832296,5.9082429 51.152758 0 0 3.30273,0.48047 c 34.31986,29.80662 53.91331,57.75643 73.72071,74.71093 28.04749,24.00775 61.87252,45.10547 101.15625,45.10547 39.28373,-7e-5 71.13086,-31.84713 71.13086,-71.13086 0,-21.52486 -9.57475,-39.30825 -24.68164,-51.00195 4.58283,-5.21279 8.23461,-10.82477 10.79492,-16.69336 0.41297,-0.94658 0.24242,-1.64043 0.57422,-2.55273 0.8202,0.40898 1.3357,1.23242 2.29101,1.23242 1.7305,0 3.34064,-0.38198 5.38477,-0.9082 -0.12423,0.27877 -0.2466,0.49784 -0.3711,0.7832 -2.02389,4.63907 -3.35416,8.17523 -4.00195,11.03515 -0.63447,2.72788 -0.83395,5.15002 -0.0254,7.1836 0.81024,2.03788 3.03971,3.41015 5.72461,3.41016 5.96194,0 12.42886,-4.19083 19.88867,-10.22461 0.0846,1.73317 0.3854,3.38036 1.3457,4.61328 a 3.832296,5.9082429 51.152758 0 0 0.008,0 c 2.02611,2.58784 5.6723,3.66992 10.11328,3.66992 8.27989,0 18.41435,-4.2899 30.17969,-11.76758 a 3.832296,5.9082429 51.152758 0 0 2.91797,-7.39648 c -0.64165,-0.70383 -1.7643,-0.70328 -2.72657,-0.97461 0.21691,-0.0997 0.42143,-0.12647 0.63867,-0.22852 a 3.832296,5.9082429 51.152758 0 0 1.83008,-1.16601 c 2.34709,-1.92446 4.50873,-4.17789 5.67774,-6.85743 0.81597,-1.87032 0.8967,-3.77161 0.41406,-5.22265 h 15.13476 C 522.80578,516.77194 499.47988,480.86317 475.83398,460.62305 447.78649,436.61534 413.96149,415.51758 374.67773,415.51758 Z m -13.98828,72.20508 a 18.571429,18.571429 0 0 1 18.57227,18.57031 18.571429,18.571429 0 0 1 -18.57227,18.57226 18.571429,18.571429 0 0 1 -18.57226,-18.57226 18.571429,18.571429 0 0 1 18.57226,-18.57031 z m -89.48828,45.7539 c 1.69834,0.37731 4.57144,0.57798 8.61719,0.60156 4.70603,0.0236 7.89,0.12971 9.55273,0.31836 3.31518,0.40089 5.59772,1.24989 6.84766,2.54688 -2.50762,1.91011 -6.04822,2.86523 -10.62305,2.86523 -0.75461,0 -1.80714,-0.0231 -3.15429,-0.0703 -1.33687,-0.0707 -2.27599,-0.10547 -2.81836,-0.10547 -3.44292,0 -6.37184,0.55378 -8.78907,1.66211 l -6.0664,13.90039 c 7.5935,-2.21667 13.34912,-3.32422 17.26367,-3.32422 3.72589,0 6.93755,0.82585 9.63672,2.47657 l -0.75586,1.73242 c -8.84564,0.33014 -19.34204,2.79416 -31.48828,7.39258 -1.0829,1.50922 -2.4136,3.83239 -3.99414,6.96875 -1.47465,2.9477 -2.75679,5.12807 -3.84571,6.54297 -1.74225,2.26383 -3.93583,4.12778 -6.57812,5.58984 l -2.54688,-1.94531 c 11.43693,-15.72893 20.20053,-30.5729 26.29102,-44.53321 0.56584,-1.29698 1.38318,-2.17109 2.45117,-2.61914 z m 39.92383,0.28321 c 1.46206,0 1.70392,1.12107 0.72656,3.36132 -1.40945,3.23068 -3.80811,5.72943 -7.19726,7.49805 -5.72337,10.47023 -11.67096,21.77735 -17.8418,33.92188 0.3928,0.61312 0.39823,1.35599 0.0176,2.22851 -0.33951,0.77819 -0.88874,1.49792 -1.64844,2.1582 -0.8613,0.73103 -1.66922,1.09766 -2.42383,1.09766 -0.8961,0 -1.42015,-0.53062 -1.57031,-1.5918 5.48743,-11.76721 10.59671,-22.09606 15.32422,-30.98632 1.61441,-3.15994 4.10601,-7.60561 7.47851,-13.33594 0.61347,-0.91968 1.72672,-1.87481 3.33789,-2.86524 1.61118,-0.99042 2.8772,-1.48632 3.79688,-1.48632 z m 91.12695,4.35156 c 0.94327,0 1.55129,0.3068 1.82617,0.91992 0.12265,0.2594 0.22708,0.9656 0.3125,2.12109 l -0.27343,0.70899 c -0.673,1.65071 -2.00007,3.66708 -3.98242,6.04883 -2.59756,3.08919 -4.16468,5.03416 -4.70313,5.83593 0.59255,0.0472 1.2765,0.0703 2.05469,0.0703 0.77819,0 1.95,-0.0347 3.51367,-0.10547 1.58725,-0.0708 2.77064,-0.10742 3.54883,-0.10742 1.93369,0 3.45994,0.20067 4.58203,0.60156 -0.93841,1.55638 -2.96101,2.54819 -6.07031,2.97265 -4.03326,0.54238 -6.93326,1.29683 -8.69922,2.26368 -3.53192,1.93369 -6.47075,5.58824 -8.81641,10.96484 -1.55349,3.56082 -2.49,6.24867 -2.81054,8.06445 -0.10543,0.56596 0.0656,0.84961 0.51367,0.84961 1.17908,0 3.80712,-1.40277 7.88476,-4.20898 3.08514,-2.09876 5.75802,-4.09199 8.01953,-5.97852 0.65775,0.33014 0.76661,1.00162 0.32422,2.01563 -0.15432,0.35372 -0.44454,0.88435 -0.87109,1.59179 -0.42655,0.70745 -0.71873,1.23808 -0.87305,1.5918 -7.48252,6.17838 -13.00363,9.26758 -16.56445,9.26758 -2.85337,0 -3.75288,-2.26335 -2.69727,-6.79102 0.50573,-2.24025 1.73669,-5.60152 3.69141,-10.08203 0.90534,-2.07518 1.78874,-3.93718 2.65039,-5.58789 -0.4721,-0.3773 -1.14506,-0.5664 -2.01758,-0.5664 -0.87252,0 -2.26915,0.2605 -4.19336,0.77929 -1.91392,0.49522 -3.29559,0.74219 -4.14453,0.74219 -1.83936,0 -2.36329,-1.17895 -1.57031,-3.53711 2.02108,-0.84894 4.69815,-1.58024 8.03125,-2.19336 3.97407,-0.73103 6.65512,-1.30795 8.04297,-1.73242 1.50309,-1.39131 3.57294,-4.16214 6.20898,-8.3125 2.42427,-3.77306 4.78491,-6.50916 7.08203,-8.20703 z m 106.75,0 c 0.94327,0 1.55324,0.3068 1.82813,0.91992 0.12265,0.2594 0.22512,0.9656 0.31054,2.12109 l -0.27343,0.70899 c -0.673,1.65071 -2.00007,3.66708 -3.98242,6.04883 -2.59756,3.08919 -4.16468,5.03416 -4.70313,5.83593 0.59255,0.0472 1.2765,0.0703 2.05469,0.0703 0.77819,0 1.95,-0.0347 3.51367,-0.10547 1.58725,-0.0708 2.77064,-0.10742 3.54883,-0.10742 1.93369,0 3.45994,0.20067 4.58203,0.60156 -0.93841,1.55638 -2.96101,2.54819 -6.07031,2.97265 -4.03326,0.54238 -6.93326,1.29683 -8.69922,2.26368 -3.53192,1.93369 -6.47075,5.58824 -8.81641,10.96484 -1.55349,3.56082 -2.49,6.24867 -2.81054,8.06445 -0.10543,0.56596 0.0656,0.84961 0.51367,0.84961 1.17908,0 3.80712,-1.40277 7.88476,-4.20898 3.08514,-2.09876 5.75802,-4.09199 8.01953,-5.97852 0.65775,0.33014 0.76661,1.00162 0.32422,2.01563 -0.15432,0.35372 -0.44454,0.88435 -0.87109,1.59179 -0.42655,0.70745 -0.71873,1.23808 -0.87305,1.5918 -7.48252,6.17838 -13.00363,9.26758 -16.56445,9.26758 -2.85337,0 -3.75093,-2.26335 -2.69531,-6.79102 0.50572,-2.24025 1.73473,-5.60152 3.68945,-10.08203 0.90534,-2.07518 1.78874,-3.93718 2.65039,-5.58789 -0.4721,-0.3773 -1.14311,-0.5664 -2.01562,-0.5664 -0.87252,0 -2.27111,0.2605 -4.19532,0.77929 -1.91392,0.49522 -3.29559,0.74219 -4.14453,0.74219 -1.83936,0 -2.36329,-1.17895 -1.57031,-3.53711 2.02108,-0.84894 4.69815,-1.58024 8.03125,-2.19336 3.97407,-0.73103 6.65512,-1.30795 8.04297,-1.73242 1.50309,-1.39131 3.57294,-4.16214 6.20898,-8.3125 2.42427,-3.77306 4.78491,-6.50916 7.08203,-8.20703 z m -211.04101,2.20703 c -2.01002,3.47463 -3.80131,6.6243 -5.07813,9.04883 -2.67524,-1.14282 -5.3905,-2.25782 -8.77343,-2.25781 -3.07295,0 -7.7732,1.30822 -12.04493,2.28124 l 1.91993,-4.40039 c 1.11147,-0.24725 1.85934,-0.59765 3.56054,-0.59765 0.30849,0 1.25849,0.0339 2.57422,0.10351 a 3.832296,5.9082429 51.152758 0 0 0.082,0 c 1.38704,0.0485 2.48271,0.0742 3.31836,0.0742 5.06517,0 9.93654,-1.00095 14.44141,-4.25195 z m 139.43945,8.08594 c 2.16951,0 2.72906,1.2021 1.67969,3.60742 -1.13168,2.59397 -3.50854,6.26205 -7.13281,11.00195 -3.75374,4.92856 -6.21892,8.60625 -7.39649,11.03516 0.21189,0.91968 0.79381,1.45031 1.7461,1.59179 1.39004,0.16508 2.227,0.35418 2.51171,0.56641 0.0644,0.82536 -0.0726,1.62806 -0.41211,2.40625 -0.70987,1.62713 -3.14712,3.72453 -7.31054,6.29492 -4.71886,0.33015 -7.3502,0.4961 -7.89258,0.4961 -3.18352,0 -5.66967,-0.62518 -7.45898,-1.875 -2.18766,-1.57997 -2.63757,-3.84332 -1.35157,-6.79102 0.97736,-2.24025 2.84437,-4.11578 5.60157,-5.625 2.48323,-1.36773 4.89198,-2.05078 7.22656,-2.05078 1.69787,0 3.11039,0.3531 4.24023,1.06055 3.9335,-3.77306 7.29185,-8.35958 10.07227,-13.75977 -2.01727,0.35373 -5.50896,1.62723 -10.47461,3.82031 -4.50905,1.95728 -7.97465,3.00695 -10.39453,3.14844 -1.02442,-1.2734 -1.08308,-2.94826 -0.17774,-5.02344 0.22634,-0.51879 0.51747,-1.02627 0.875,-1.52148 1.99322,-0.73103 6.55354,-2.26308 13.67969,-4.59766 7.72724,-2.52323 11.85035,-3.78515 12.36914,-3.78515 z m 30.47656,3.04297 c 3.8438,0 5.89026,1.93339 6.13672,5.80078 0.20265,2.99486 -0.63344,6.63783 -2.50586,10.92968 -3.30244,7.5697 -8.42847,14.45625 -15.3789,20.65821 -0.39187,0.14149 -0.72874,0.21094 -1.01172,0.21094 -0.84894,0 -1.44709,-0.60008 -1.79492,-1.80274 -0.30795,-1.13192 -0.2679,-2.14687 0.12304,-3.04297 0.86419,-1.98085 3.28544,-4.04353 7.26367,-6.18945 1.99819,-2.6883 3.8314,-5.94345 5.49805,-9.76367 1.38888,-3.18352 2.15333,-5.52984 2.29297,-7.03907 0.26217,-2.54681 -0.85582,-3.82031 -3.35547,-3.82031 -3.60798,0 -7.6656,2.11093 -12.17187,6.33203 -2.40255,2.26384 -5.8418,6.20204 -10.31836,11.81446 -3.37436,4.2211 -5.49858,6.33203 -6.3711,6.33203 -2.35816,0 -2.49276,-2.39458 -0.40429,-7.18164 0.74073,-1.69788 2.28312,-4.5864 4.6289,-8.66602 2.36937,-4.07961 3.88988,-6.88516 4.5586,-8.41797 0.21604,-0.49521 0.39323,-0.95444 0.53125,-1.3789 1.79139,0.54237 2.93991,1.55537 3.44726,3.04101 -0.0823,0.18865 -0.27038,0.56686 -0.56445,1.13281 -0.22934,0.47164 -0.40584,0.84788 -0.5293,1.13086 -0.29835,0.68387 -0.36385,1.23764 -0.19531,1.66211 5.01605,-4.36259 8.19652,-7.00219 9.54102,-7.92187 3.70507,-2.54681 7.23149,-3.82031 10.58007,-3.82031 z m -139.53906,0.63671 c 2.47607,0 4.68971,0.41098 6.64063,1.23633 2.64252,1.13192 3.52682,2.70064 2.65234,4.70508 -0.52469,1.20266 -1.64939,2.51089 -3.375,3.92578 -8.33424,3.91455 -16.16808,5.87305 -23.50195,5.87305 -1.34415,0 -2.69371,-0.0714 -4.04688,-0.21289 -1.57303,0.84894 -2.67855,2.00474 -3.31641,3.46679 -0.65843,1.50923 -0.57501,2.7229 0.25,3.64258 0.71439,0.84894 1.84987,1.27344 3.40626,1.27344 2.19308,0 6.06363,-0.95512 11.61328,-2.86523 5.54964,-1.91011 9.32759,-2.86524 11.33203,-2.86524 1.1555,0 1.9802,0.27208 2.47461,0.81445 -11.09386,7.0509 -19.9305,10.57618 -26.50977,10.57618 -3.70231,0 -6.22648,-0.86058 -7.57422,-2.58203 -1.45108,-1.86295 -1.39047,-4.59905 0.1836,-8.20704 0.23662,-0.54237 0.60563,-1.33155 1.10547,-2.36914 0.51012,-1.06117 0.88251,-1.86387 1.11914,-2.40625 0.72016,-1.65071 1.02561,-2.88753 0.91406,-3.71289 2.2295,-0.35372 5.27829,-1.80475 9.14844,-4.35156 4.13081,-2.71188 7.04297,-4.30376 8.73437,-4.77539 2.79199,-0.77819 5.70797,-1.16602 8.75,-1.16602 z m 213.32422,0 c 2.47607,0 4.68971,0.41098 6.64062,1.23633 2.64253,1.13192 3.52487,2.70064 2.65039,4.70508 -0.52468,1.20266 -1.64938,2.51089 -3.375,3.92578 -8.33423,3.91455 -16.16807,5.87305 -23.50195,5.87305 -1.34415,0 -2.69175,-0.0714 -4.04492,-0.21289 -1.57303,0.84894 -2.67855,2.00474 -3.31641,3.46679 -0.65843,1.50923 -0.57501,2.7229 0.25,3.64258 0.71439,0.84894 1.84792,1.27344 3.4043,1.27344 2.19309,0 6.06559,-0.95512 11.61524,-2.86523 5.54964,-1.91011 9.32564,-2.86524 11.33007,-2.86524 1.1555,0 1.98216,0.27208 2.47657,0.81445 -11.09386,7.0509 -19.9305,10.57618 -26.50977,10.57618 -3.70231,0 -6.22843,-0.86058 -7.57617,-2.58203 -1.45108,-1.86295 -1.38852,-4.59905 0.18554,-8.20704 0.23663,-0.54237 0.60369,-1.33155 1.10352,-2.36914 0.51012,-1.06117 0.88447,-1.86387 1.12109,-2.40625 0.72016,-1.65071 1.02367,-2.88753 0.91211,-3.71289 2.2295,-0.35372 5.28024,-1.80475 9.15039,-4.35156 4.13082,-2.71188 7.04103,-4.30376 8.73243,-4.77539 2.79199,-0.77819 5.70992,-1.16602 8.75195,-1.16602 z m -169.93359,0.65821 c 0.97882,0.0338 1.96058,0.0625 2.94921,0.0625 h 2.40039 c -1.53605,0.42059 -2.97484,0.90351 -4.36328,1.47851 -0.20969,-0.35266 -0.38276,-0.64118 -0.50781,-0.84765 -0.13252,-0.2188 -0.0956,-0.1833 -0.35547,-0.53907 a 3.832296,5.9082429 51.152758 0 0 -0.0898,-0.11914 c -0.0103,-0.0124 -0.0229,-0.0228 -0.0332,-0.0351 z m 71.61132,0.0625 h 0.45508 a 3.832296,5.9082429 51.152758 0 0 -0.91992,0.71093 c 0.10262,-0.20648 0.28547,-0.45956 0.46484,-0.71093 z m 7.31055,0 h 3.62305 c -0.73788,0.62161 -1.55607,1.34052 -2.12891,1.79687 -0.51242,-0.58796 -0.95997,-1.23849 -1.49414,-1.79687 z m 27.91211,0 h 5.24219 c -1.58677,0.43003 -3.07283,0.92398 -4.5,1.52343 a 3.832296,5.9082429 51.152758 0 0 -0.38086,0.17774 c -0.0776,-0.59129 -0.19877,-1.15915 -0.36133,-1.70117 z m 42.47656,0 h 4.10352 c -0.8424,0.53612 -1.70641,1.09653 -2.66016,1.72265 a 3.832296,5.9082429 51.152758 0 0 -0.008,0 c -2.19799,1.44643 -2.95165,1.61037 -4.04297,2.06055 0.57655,-0.6127 1.40009,-0.9293 1.80664,-1.60351 a 3.832296,5.9082429 51.152758 0 0 0.80078,-2.17969 z m -158.83398,1.40039 c 2.0516,0 3.70964,0.76602 4.97461,2.29883 0.10334,0.14149 1.00898,1.66391 2.71484,4.56445 -2.10847,1.69787 -3.90498,2.54687 -5.39062,2.54687 -0.54238,0 -0.97529,-0.1177 -1.29688,-0.35351 -0.14415,-0.96685 -0.5825,-1.82937 -1.31445,-2.58399 -0.80571,-0.80177 -1.72608,-1.20117 -2.76367,-1.20117 -3.23068,0 -7.33813,3.17022 -12.32227,9.51367 -4.00412,5.07005 -6.91197,9.68167 -8.72266,13.83204 -0.53035,0.18865 -0.98402,0.2832 -1.36132,0.2832 -1.93369,0 -2.50098,-1.40473 -1.70118,-4.21094 0.68456,-1.83936 1.65332,-4.49054 2.90625,-7.95703 1.16289,-3.5844 2.12541,-6.2491 2.88672,-7.99414 1.30658,-2.99486 2.85226,-5.64799 4.63867,-7.95898 2.22361,0.84893 3.14095,1.72108 2.75,2.61718 -0.14403,0.33014 -0.40328,0.81252 -0.77539,1.44922 -0.3721,0.6367 -0.6294,1.12103 -0.77343,1.45117 -0.33951,0.7782 -0.3772,1.40337 -0.11133,1.875 4.73145,-3.27784 7.28992,-5.03567 7.67578,-5.27148 3.20178,-1.93369 5.86398,-2.90039 7.98633,-2.90039 z m -34.9336,2.51172 c -1.95727,0 -4.14391,0.38977 -6.55859,1.16797 -2.71523,0.87251 -4.88291,2.00321 -6.50391,3.39453 -0.87159,0.75461 -1.3988,1.34506 -1.58398,1.76953 -0.34979,0.80177 0.19434,1.20312 1.63281,1.20312 2.19309,0 5.21635,-0.66185 9.07031,-1.98242 3.85397,-1.32057 6.91185,-2.73492 9.17383,-4.24414 -1.36438,-0.87252 -3.10812,-1.30859 -5.23047,-1.30859 z m 213.32422,0 c -1.95727,0 -4.14391,0.38977 -6.55859,1.16797 -2.71523,0.87251 -4.88291,2.00321 -6.50391,3.39453 -0.87159,0.75461 -1.40075,1.34506 -1.58593,1.76953 -0.3498,0.80177 0.19433,1.20312 1.63281,1.20312 2.19309,0 5.21634,-0.66185 9.07031,-1.98242 3.85397,-1.32057 6.91185,-2.73492 9.17383,-4.24414 -1.36438,-0.87252 -3.10617,-1.30859 -5.22852,-1.30859 z m -100.20508,0.66797 c -0.034,0.0822 -0.045,0.11908 -0.0859,0.21289 -0.40109,0.91944 -1.89163,3.74729 -4.21289,7.74414 a 3.832296,5.9082429 51.152758 0 0 -0.01,0.0215 c -1.38843,2.41467 -2.19686,3.99689 -2.97656,5.54297 -0.49873,-0.0858 -1.00537,-0.15186 -1.50781,-0.22852 0.97545,-1.59784 2.00532,-3.27051 4.21875,-6.17773 l 0.0137,-0.0137 c 2.16597,-2.8334 3.13236,-4.81884 4.56054,-7.10156 z m -35.20703,3.49023 c -0.45012,2.37283 -0.35212,4.64605 0.86914,6.16406 a 3.832296,5.9082429 51.152758 0 0 1.8125,0.99024 c -0.82338,0.51261 -1.61922,1.07602 -2.38281,1.68554 h -0.93164 c 0.37873,-2.00711 -0.0988,-4.18894 -1.67187,-4.97851 a 3.832296,5.9082429 51.152758 0 0 -6.25586,1.51367 c -1.27485,1.06345 -2.86736,2.24604 -4.56836,3.46484 h -1.42578 c 1.87398,-4.05488 3.5871,-5.735 4.82031,-6.41015 -0.0485,0.0266 2.53055,-0.9207 6.22851,-1.41797 a 3.832296,5.9082429 51.152758 0 0 0.0156,0 c 1.157,-0.15795 2.33324,-0.65592 3.49023,-1.01172 z m -118.23047,0.25977 c -1.44493,2.85409 -2.88358,5.68537 -4.33789,8.58007 h -22.01171 c 0.59724,-1.10202 1.0831,-1.90704 1.58593,-2.74804 9.51315,-3.39893 17.76599,-5.32425 24.76367,-5.83203 z m 224.01563,0.0215 a 3.832296,5.9082429 51.152758 0 0 -1.10352,3.58008 c -0.008,-0.0604 -0.0807,0.23989 -0.0859,0.22851 -0.0768,-0.0488 -0.0681,-0.1872 -0.15039,-0.22851 a 3.832296,5.9082429 51.152758 0 0 -6.25586,1.51367 c -1.77469,1.4804 -4.05251,3.15272 -6.58203,4.90234 0.14282,-0.34133 0.10711,-0.38276 0.26562,-0.74609 2.0002,-4.58476 3.83858,-6.38765 5.14258,-7.10156 -0.0485,0.0266 2.53059,-0.9207 6.22851,-1.41797 a 3.832296,5.9082429 51.152758 0 0 0.0156,0 c 0.83749,-0.11433 1.69575,-0.52464 2.52539,-0.73047 z m -47.64063,0.97461 c 0.0282,0.0321 0.0484,0.033 0.006,0.0293 0.0155,0.0396 0.0394,0.15339 -0.002,0.55468 a 3.832296,5.9082429 51.152758 0 0 -0.0117,0.043 c -0.049,0.52914 -0.60145,2.56408 -1.8789,5.49219 -1.35285,3.10091 -2.7713,5.45699 -4.15821,7.44922 -1.07256,0.66083 -2.10602,1.35633 -3.08398,2.0918 -1.97411,-0.99047 -4.00521,-1.8962 -6.0918,-2.7129 3.5256,-4.3195 6.30809,-7.42758 7.80274,-8.83593 3.61094,-3.37784 5.40507,-4.08985 7.1582,-4.08985 0.18762,0 0.23448,0.005 0.26562,0.008 -0.008,-0.0206 -0.0224,-0.0483 -0.006,-0.0293 z m -106.32617,2.0918 c 0.0232,0.002 0.0323,0.0117 0.0469,0.0117 -0.17772,0 0.0345,-0.006 0.40234,0.33203 0.40496,0.42315 0.5599,0.79403 0.60547,1.09961 a 3.832296,5.9082429 51.152758 0 0 1.0293,1.75 c 0.88201,0.64682 2.1045,0.96093 3.33984,0.96093 2.48954,0 5.09474,-1.26635 7.52149,-2.82812 0.85144,0.46072 1.42078,1.30664 2.43554,1.30664 1.7305,0 3.34259,-0.38198 5.38672,-0.9082 -0.12423,0.27877 -0.2466,0.49784 -0.37109,0.7832 -0.46047,1.05545 -0.87483,2.03802 -1.26367,2.98437 h -24.83204 c 1.91743,-2.34245 3.56162,-3.9788 4.57813,-4.76367 0.8553,-0.66041 1.05149,-0.7335 1.12109,-0.72851 z m 63.67383,0.38086 c -0.0115,0.0133 -0.0237,0.0317 -0.0352,0.0449 -0.0196,-0.002 -0.0331,-0.0137 -0.0527,-0.0156 0.0329,-0.0139 0.0549,-0.0153 0.0879,-0.0293 z m -85.74219,1.42578 c -0.0509,0.13557 -0.10469,0.30183 -0.15625,0.4414 -0.17856,-0.0679 -0.34199,-0.13819 -0.52929,-0.1914 0.2169,-0.0997 0.42142,-0.12647 0.63867,-0.22852 a 3.832296,5.9082429 51.152758 0 0 0.0469,-0.0215 z m 80.67969,8.23242 c -2.64114,0 -4.36672,1.0381 -5.17773,3.11328 l -0.21094,0.56445 c 0.62052,1.22625 2.02761,1.83985 4.2207,1.83985 1.81579,0 3.43047,-0.45923 4.84571,-1.37891 -0.69763,-0.40089 -0.95482,-1.56826 -0.77149,-3.50195 -0.78166,-0.42447 -1.75075,-0.63672 -2.90625,-0.63672 z m 17.39844,23.39258 a 18.571429,18.571429 0 0 1 18.57031,18.57226 18.571429,18.571429 0 0 1 -18.57031,18.57032 18.571429,18.571429 0 0 1 -18.57227,-18.57032 18.571429,18.571429 0 0 1 18.57227,-18.57226 z"
       transform="scale(0.26458333)"
       id="circle4866"
       inkscape:connector-curvature="0" />
  </g>
</svg>
