<?xml version="1.0" encoding="UTF-8" standalone="no"?>
<!-- Created with Inkscape (http://www.inkscape.org/) -->

<svg
   xmlns:dc="http://purl.org/dc/elements/1.1/"
   xmlns:cc="http://creativecommons.org/ns#"
   xmlns:rdf="http://www.w3.org/1999/02/22-rdf-syntax-ns#"
   xmlns:svg="http://www.w3.org/2000/svg"
   xmlns="http://www.w3.org/2000/svg"
   xmlns:sodipodi="http://sodipodi.sourceforge.net/DTD/sodipodi-0.dtd"
   xmlns:inkscape="http://www.inkscape.org/namespaces/inkscape"
   width="210mm"
   height="297mm"
   viewBox="0 0 210 297"
   version="1.1"
   id="svg5998"
   inkscape:version="0.92.4 (5da689c313, 2019-01-14)"
   sodipodi:docname="logo_2.svg">
  <defs
     id="defs5992" />
  <sodipodi:namedview
     id="base"
     pagecolor="#ffffff"
     bordercolor="#666666"
     borderopacity="1.0"
     inkscape:pageopacity="0.0"
     inkscape:pageshadow="2"
     inkscape:zoom="0.7"
     inkscape:cx="414.11106"
     inkscape:cy="578.67661"
     inkscape:document-units="mm"
     inkscape:current-layer="layer1"
     showgrid="false"
     inkscape:window-width="1914"
     inkscape:window-height="1056"
     inkscape:window-x="0"
     inkscape:window-y="0"
     inkscape:window-maximized="1" />
  <metadata
     id="metadata5995">
    <rdf:RDF>
      <cc:Work
         rdf:about="">
        <dc:format>image/svg+xml</dc:format>
        <dc:type
           rdf:resource="http://purl.org/dc/dcmitype/StillImage" />
        <dc:title></dc:title>
      </cc:Work>
    </rdf:RDF>
  </metadata>
  <g
     inkscape:label="Layer 1"
     inkscape:groupmode="layer"
     id="layer1">
    <g
       style="display:inline;opacity:1"
       transform="rotate(90,-68.156415,276.06108)"
       id="use4820" />
    <g
       transform="rotate(-90,-10.260487,-39.647488)"
       id="use4813"
       style="display:inline;opacity:1;fill:#ff0000">
      <path
         id="circle4866"
         style="color:#000000;clip-rule:nonzero;display:inline;overflow:visible;visibility:visible;opacity:1;isolation:auto;mix-blend-mode:normal;color-interpolation:sRGB;color-interpolation-filters:linearRGB;solid-color:#000000;solid-opacity:1;vector-effect:none;fill:#ff0000;fill-opacity:1;fill-rule:evenodd;stroke:#aaffcc;stroke-width:0.04336666;stroke-linecap:round;stroke-linejoin:round;stroke-miterlimit:4;stroke-dasharray:none;stroke-dashoffset:0;stroke-opacity:1;color-rendering:auto;image-rendering:auto;shape-rendering:auto;text-rendering:auto;enable-background:accumulate"
         d="m -178.9511,66.045433 a 4.9136906,4.9136906 0 0 1 -4.91369,4.913691 4.9136906,4.9136906 0 0 1 -4.91369,-4.913691 4.9136906,4.9136906 0 0 1 4.91369,-4.913691 4.9136906,4.9136906 0 0 1 4.91369,4.913691 z m 19.10392,3.7008 c 0,10.39383 -5.58217,19.34359 -11.93421,26.76449 -5.3552,6.256307 -14.85584,12.428127 -24.38959,25.249807 V 69.746233 c 0,-10.39382 7.11028,-18.81968 17.50411,-18.81968 10.39382,0 18.81968,8.42586 18.81969,18.81968 z m -58.01767,15.434331 a 4.9136906,4.9136906 0 0 1 4.91369,-4.913691 4.9136906,4.9136906 0 0 1 4.91369,4.913691 4.9136906,4.9136906 0 0 1 -4.91369,4.913691 4.9136906,4.9136906 0 0 1 -4.91369,-4.913691 z m -19.10392,-3.7008 c 0,-10.39383 5.58217,-19.34359 11.93421,-26.76449 5.3552,-6.256307 14.85584,-12.428127 24.38959,-25.249807 v 52.014297 c 0,10.39382 -7.11028,18.819676 -17.50411,18.819676 -10.39382,0 -18.81968,-8.425856 -18.81969,-18.819676 z"
         inkscape:connector-curvature="0" />
    </g>
  </g>
</svg>
